<?xml version="1.0" encoding="UTF-8" standalone="no"?>
<!-- Created with Inkscape (http://www.inkscape.org/) -->

<svg
   xmlns:dc="http://purl.org/dc/elements/1.1/"
   xmlns:cc="http://creativecommons.org/ns#"
   xmlns:rdf="http://www.w3.org/1999/02/22-rdf-syntax-ns#"
   xmlns:svg="http://www.w3.org/2000/svg"
   xmlns="http://www.w3.org/2000/svg"
   version="1.0"
   width="900"
   height="900"
   id="svg2848">
  <metadata
     id="metadata1970">
    <rdf:RDF>
      <cc:Work
         rdf:about="">
        <dc:format>image/svg+xml</dc:format>
        <dc:type
           rdf:resource="http://purl.org/dc/dcmitype/StillImage" />
        <dc:title></dc:title>
      </cc:Work>
    </rdf:RDF>
  </metadata>
  <defs
     id="defs2850" />
  <g
     id="layer2"
     style="display:inline">
    <path
       d="m 750,455 a 305,295 0 1 1 -610,0 305,295 0 1 1 610,0 z"
       transform="matrix(0.98360656,0,0,1.0169492,12.295082,-12.711864)"
       id="path5572"
       style="fill:#339966;fill-opacity:1;fill-rule:nonzero;stroke:none" />
    <path
       d="M 450,0 C 296.44174,0 160.77984,77.047236 79.5625,194.5625 l 87,50.25 C 230.1847,157.10508 333.43928,100 450,100 c 116.56072,0 219.8153,57.10508 283.4375,144.8125 l 87,-50.25 C 739.22016,77.047236 603.55826,0 450,0 z"
       id="path4005"
       style="fill:#990000;fill-opacity:1;stroke:none" />
    <path
       d="M 32.1875,282.75 C 11.448392,334.46664 0,390.90008 0,450 0,681.50364 175.0975,872.35712 400,897.25 l 0,-100.875 C 230.47074,772.0781 100,626.21538 100,450 c 0,-40.89156 7.03061,-80.13628 19.9375,-116.625 l -87.75,-50.625 z"
       id="path4003"
       style="fill:#006699;fill-opacity:1;stroke:none" />
    <path
       d="m 867.8125,282.75 -87.75,50.625 C 792.9694,369.86372 800,409.10844 800,450 800,626.21536 669.52928,772.0781 500,796.375 l 0,100.875 C 724.90248,872.35712 899.99998,681.50364 900,450 900,390.90008 888.5516,334.46664 867.8125,282.75 z"
       id="path3918"
       style="fill:#006699;fill-opacity:1;stroke:none" />
  </g>
  <g
     id="layer5">
    <path
       d="m 352.90538,228.90724 c 0,0 1.71353,12.34205 -6.87413,19.90526 -19.44108,17.1219 -47.40736,38.50284 -50.5,46.40625 -3.09264,7.90341 1.03088,19.25049 1.03088,19.25049 0,0 -8.93787,4.47308 -10.99963,17.87451 -1.10841,7.20466 9.96764,19.90489 9.96764,19.90489 0,0 -8.93626,4.47407 -8.59264,15.47011 0.12924,4.13579 3.09424,8.25111 3.09424,8.25111 0,0 8.59487,-2.0641 13.06201,-3.43861 4.46715,-1.3745 6.15625,0 6.15625,0 0,0 -13.71813,14.44244 -12,28.1875 1.71814,13.74505 11.65625,24.71875 11.65625,24.71875 0,0 5.15947,-19.90711 14.09375,-22.3125 8.93429,-2.40538 10.3125,-1.03125 10.3125,-1.03125 -2.96339,12.70944 -4.24832,31.60413 -0.34375,47.40625 0,0 -61.97412,8.1344 -65.96875,15.125 -5.49803,9.62154 32.65551,70.781 32.65551,70.781 0,0 -23.38205,21.66193 -41.25062,38.15601 -7.15063,6.60058 -19.59239,21.65674 -19.59239,21.65674 0,0 8.59721,9.24988 18.21875,8.90625 9.62154,-0.34362 13.0625,-2.0625 13.0625,-2.0625 0,0 8.22865,-17.5089 27.47172,-37.0956 19.24308,-19.58671 86.62203,-69.4044 86.62203,-69.4044 0,0 15.44207,7.90785 28.15625,12.375 12.71418,4.46714 34.375,6.5 34.375,6.5 0,0 -12.00543,18.57457 -12.375,25.78125 C 433.6565,553.62018 449.8125,577 449.8125,577 c 0,0 -34.71949,3.43837 -36.78125,5.84375 -2.06175,2.40539 -22.3125,41.21875 -22.3125,41.21875 0,0 -2.43466,8.25149 5.46875,12.375 7.90341,4.12352 14.78125,-0.6875 14.78125,-0.6875 0,0 5.93507,-13.2384 7.56374,-26.12537 2.06853,-16.36746 20.62674,-12.3745 30.24827,-11.68725 9.62154,0.68725 24.75074,-3.40749 25.43799,-7.18738 0.68726,-3.77989 1.03149,-34.03285 4.46776,-38.5 3.43626,-4.46714 21.28137,-2.40798 21.28137,-2.40798 0,0 -7.21739,26.81434 -4.812,34.37413 2.40538,7.55978 18.21801,23.34709 18.21801,23.34709 0,0 -37.43799,32.65785 -41.90514,39.18676 -4.46714,6.5289 -11.00012,20.62537 -11.34375,21.65625 -0.34362,1.03088 12.69158,10.31163 24.03125,7.90625 11.33967,-2.40539 0.36664,-17.10205 12.03125,-29.5625 17.14313,-18.31276 38.84374,-23.7216 41.24913,-29.21962 2.40538,-5.49803 -14.77754,-35.71961 -7.56138,-45.34115 7.21615,-9.62154 34.00099,-36.78768 37.43725,-49.84548 3.43627,-13.05781 2.0625,-41.90625 2.0625,-41.90625 0,0 20.96986,-3.09374 20.96986,8.59462 0,36.08077 -24.16511,34.70156 -24.75111,66.31163 -0.54154,29.21186 21.79712,48.37592 36.43614,49.46838 23.02296,1.71813 52.56386,-43.28088 52.56386,-43.28088 0,0 -28.26273,3.0188 -29.53261,-4.81213 -2.06177,-12.71418 39.15686,-26.10833 31.94071,-60.47097 -7.21615,-34.36264 -32.88526,-47.69001 -42.25185,-46.4044 -17.52495,2.40539 -30.94355,17.52964 -47.78125,13.0625 -16.83769,-4.46715 -25.07462,-12.72431 -50.50297,-23.72036 -25.42836,-10.99604 -31.60004,-8.91292 -57.37203,-31.93589 -15.41206,-13.7681 -26.20959,-15.39245 -29.56411,-44.68886 -1.68498,-14.7157 7.56411,-18.21739 7.56411,-18.21739 0,0 4.46987,14.09486 7.5625,17.1875 3.09264,3.09263 6.19207,23.71937 16.15724,23.71937 9.96516,0 19.21838,-13.75704 18.53113,-25.44034 -0.68726,-11.6833 1.74531,-26.41453 8.59337,-33.65391 12.02692,-12.71417 11.68701,-36.43762 11.68701,-36.43762 l 66.3125,-48.78125 -71.46875,30.90625 c 4.82484,-6.55491 1.47059,-15.83619 1.375,-24.03125 -3.58899,5.96484 -6.70037,12.13436 -16.5,15.4375 0,0 -10.28199,-3.4375 -12.34375,-3.4375 -2.06176,0 -9.625,-0.34375 -9.625,-0.34375 1.58124,-8.54895 -7.73885,-14.37258 -12.71875,-21.28125 -0.76525,7.54801 -1.44342,15.35724 -3.09375,20.25 l -10.3125,0 c 0,0 -7.1365,-18.87474 -23.37994,-19.56349 -34.47056,-1.46161 -54.96468,-9.96677 -54.96468,-9.96677 z m -9.96837,249.46689 12.03001,3.78249 c -14.86755,8.86778 -24.71693,25.0229 -37.81188,37.43589 -6.99245,-11.36726 -21.35832,-21.27846 -22.65514,-39.15501 16.87031,0.51995 34.19788,1.802 48.43701,-2.06337 z"
       id="path5581"
       style="fill:#ffffff;stroke:none" />
  </g>
  <g
     id="layer4"
     style="display:inline" />
</svg>
