<svg xmlns="http://www.w3.org/2000/svg" version="1" width="60" height="60"><path d="M30 0C19.763 0 10.719 5.152 5.304 13.01l5.8 3.36C15.346 10.507 22.23 6.688 30 6.688c7.77 0 14.654 3.819 18.896 9.684l5.8-3.36C49.28 5.152 40.237 0 30 0z" fill="#900"/><path d="M2.146 18.908A30.062 30.062 0 0 0 0 30.092C0 45.572 11.673 58.335 26.667 60v-6.746c-11.302-1.624-20-11.378-20-23.162 0-2.735.468-5.359 1.329-7.799zM57.854 18.908l-5.85 3.385c.86 2.44 1.33 5.064 1.33 7.799 0 11.784-8.699 21.538-20 23.162V60C48.326 58.335 60 45.573 60 30.092c0-3.952-.763-7.726-2.146-11.184z" fill="#069"/><path d="M49.883 28.306L32.228 10.598a2.599 2.599 0 0 0-3.683 0l-3.666 3.677 4.65 4.665a3.085 3.085 0 0 1 3.182.744 3.11 3.11 0 0 1 .735 3.21l4.482 4.496a3.086 3.086 0 0 1 3.202.738 3.114 3.114 0 0 1 0 4.395 3.092 3.092 0 0 1-4.384 0 3.116 3.116 0 0 1-.674-3.38l-4.18-4.193v11.033a3.116 3.116 0 0 1 .82 4.984 3.092 3.092 0 0 1-4.383 0 3.116 3.116 0 0 1 1.015-5.074V24.757a3.115 3.115 0 0 1-1.682-4.076l-4.584-4.6-12.106 12.143a2.62 2.62 0 0 0 0 3.695l17.656 17.708a2.599 2.599 0 0 0 3.683 0L49.883 32a2.619 2.619 0 0 0 0-3.695" fill="#396"/></svg>